<svg xmlns="http://www.w3.org/2000/svg" width="1200" height="420" viewBox="0 0 1200 420">
<rect width="100%" height="100%" fill="white"/>
<style>text{font-family:Arial,sans-serif;font-size:13px;fill:#222}.title{font-size:16px;font-weight:700}.axis{stroke:#222;stroke-width:1}.grid{stroke:#ddd;stroke-width:1}.line{fill:none;stroke-width:2.5}.label{font-size:12px}</style>
<text class="title" x="50.0" y="30">Old vs new t density</text>
<line class="grid" x1="50.0" y1="50" x2="50.0" y2="370"/>
<text class="label" x="42.0" y="390.0">0</text>
<line class="grid" x1="133.3" y1="50" x2="133.3" y2="370"/>
<text class="label" x="125.3" y="390.0">0.25</text>
<line class="grid" x1="216.7" y1="50" x2="216.7" y2="370"/>
<text class="label" x="208.7" y="390.0">0.5</text>
<line class="grid" x1="300.0" y1="50" x2="300.0" y2="370"/>
<text class="label" x="292.0" y="390.0">0.75</text>
<line class="grid" x1="383.3" y1="50" x2="383.3" y2="370"/>
<text class="label" x="375.3" y="390.0">1</text>
<line class="grid" x1="50.0" y1="370.0" x2="383.3333333333333" y2="370.0"/>
<text class="label" x="15.0" y="374.0">0</text>
<line class="grid" x1="50.0" y1="306.0" x2="383.3333333333333" y2="306.0"/>
<text class="label" x="15.0" y="310.0">1</text>
<line class="grid" x1="50.0" y1="242.0" x2="383.3333333333333" y2="242.0"/>
<text class="label" x="15.0" y="246.0">2</text>
<line class="grid" x1="50.0" y1="178.0" x2="383.3333333333333" y2="178.0"/>
<text class="label" x="15.0" y="182.0">3</text>
<line class="grid" x1="50.0" y1="114.0" x2="383.3333333333333" y2="114.0"/>
<text class="label" x="15.0" y="118.0">4</text>
<line class="grid" x1="50.0" y1="50.0" x2="383.3333333333333" y2="50.0"/>
<text class="label" x="15.0" y="54.0">5</text>
<line class="axis" x1="50.0" y1="370" x2="383.3333333333333" y2="370"/>
<line class="axis" x1="50.0" y1="50" x2="50.0" y2="370"/>
<text x="181.7" y="410.0">t</text>
<text transform="translate(8.0,245.0) rotate(-90)">density</text>
<polyline class="line" points="50.7,306.0 51.3,306.0 52.0,306.0 52.7,306.0 53.3,306.0 54.0,306.0 54.7,306.0 55.3,306.0 56.0,306.0 56.7,306.0 57.3,306.0 58.0,306.0 58.7,306.0 59.4,306.0 60.0,306.0 60.7,306.0 61.4,306.0 62.0,306.0 62.7,306.0 63.4,306.0 64.0,306.0 64.7,306.0 65.4,306.0 66.0,306.0 66.7,306.0 67.4,306.0 68.0,306.0 68.7,306.0 69.4,306.0 70.0,306.0 70.7,306.0 71.4,306.0 72.0,306.0 72.7,306.0 73.4,306.0 74.0,306.0 74.7,306.0 75.4,306.0 76.1,306.0 76.7,306.0 77.4,306.0 78.1,306.0 78.7,306.0 79.4,306.0 80.1,306.0 80.7,306.0 81.4,306.0 82.1,306.0 82.7,306.0 83.4,306.0 84.1,306.0 84.7,306.0 85.4,306.0 86.1,306.0 86.7,306.0 87.4,306.0 88.1,306.0 88.7,306.0 89.4,306.0 90.1,306.0 90.7,306.0 91.4,306.0 92.1,306.0 92.8,306.0 93.4,306.0 94.1,306.0 94.8,306.0 95.4,306.0 96.1,306.0 96.8,306.0 97.4,306.0 98.1,306.0 98.8,306.0 99.4,306.0 100.1,306.0 100.8,306.0 101.4,306.0 102.1,306.0 102.8,306.0 103.4,306.0 104.1,306.0 104.8,306.0 105.4,306.0 106.1,306.0 106.8,306.0 107.4,306.0 108.1,306.0 108.8,306.0 109.5,306.0 110.1,306.0 110.8,306.0 111.5,306.0 112.1,306.0 112.8,306.0 113.5,306.0 114.1,306.0 114.8,306.0 115.5,306.0 116.1,306.0 116.8,306.0 117.5,306.0 118.1,306.0 118.8,306.0 119.5,306.0 120.1,306.0 120.8,306.0 121.5,306.0 122.1,306.0 122.8,306.0 123.5,306.0 124.1,306.0 124.8,306.0 125.5,306.0 126.2,306.0 126.8,306.0 127.5,306.0 128.2,306.0 128.8,306.0 129.5,306.0 130.2,306.0 130.8,306.0 131.5,306.0 132.2,306.0 132.8,306.0 133.5,306.0 134.2,306.0 134.8,306.0 135.5,306.0 136.2,306.0 136.8,306.0 137.5,306.0 138.2,306.0 138.8,306.0 139.5,306.0 140.2,306.0 140.8,306.0 141.5,306.0 142.2,306.0 142.9,306.0 143.5,306.0 144.2,306.0 144.9,306.0 145.5,306.0 146.2,306.0 146.9,306.0 147.5,306.0 148.2,306.0 148.9,306.0 149.5,306.0 150.2,306.0 150.9,306.0 151.5,306.0 152.2,306.0 152.9,306.0 153.5,306.0 154.2,306.0 154.9,306.0 155.5,306.0 156.2,306.0 156.9,306.0 157.5,306.0 158.2,306.0 158.9,306.0 159.6,306.0 160.2,306.0 160.9,306.0 161.6,306.0 162.2,306.0 162.9,306.0 163.6,306.0 164.2,306.0 164.9,306.0 165.6,306.0 166.2,306.0 166.9,306.0 167.6,306.0 168.2,306.0 168.9,306.0 169.6,306.0 170.2,306.0 170.9,306.0 171.6,306.0 172.2,306.0 172.9,306.0 173.6,306.0 174.2,306.0 174.9,306.0 175.6,306.0 176.3,306.0 176.9,306.0 177.6,306.0 178.3,306.0 178.9,306.0 179.6,306.0 180.3,306.0 180.9,306.0 181.6,306.0 182.3,306.0 182.9,306.0 183.6,306.0 184.3,306.0 184.9,306.0 185.6,306.0 186.3,306.0 186.9,306.0 187.6,306.0 188.3,306.0 188.9,306.0 189.6,306.0 190.3,306.0 190.9,306.0 191.6,306.0 192.3,306.0 193.0,306.0 193.6,306.0 194.3,306.0 195.0,306.0 195.6,306.0 196.3,306.0 197.0,306.0 197.6,306.0 198.3,306.0 199.0,306.0 199.6,306.0 200.3,306.0 201.0,306.0 201.6,306.0 202.3,306.0 203.0,306.0 203.6,306.0 204.3,306.0 205.0,306.0 205.6,306.0 206.3,306.0 207.0,306.0 207.6,306.0 208.3,306.0 209.0,306.0 209.7,306.0 210.3,306.0 211.0,306.0 211.7,306.0 212.3,306.0 213.0,306.0 213.7,306.0 214.3,306.0 215.0,306.0 215.7,306.0 216.3,306.0 217.0,306.0 217.7,306.0 218.3,306.0 219.0,306.0 219.7,306.0 220.3,306.0 221.0,306.0 221.7,306.0 222.3,306.0 223.0,306.0 223.7,306.0 224.3,306.0 225.0,306.0 225.7,306.0 226.4,306.0 227.0,306.0 227.7,306.0 228.4,306.0 229.0,306.0 229.7,306.0 230.4,306.0 231.0,306.0 231.7,306.0 232.4,306.0 233.0,306.0 233.7,306.0 234.4,306.0 235.0,306.0 235.7,306.0 236.4,306.0 237.0,306.0 237.7,306.0 238.4,306.0 239.0,306.0 239.7,306.0 240.4,306.0 241.0,306.0 241.7,306.0 242.4,306.0 243.1,306.0 243.7,306.0 244.4,306.0 245.1,306.0 245.7,306.0 246.4,306.0 247.1,306.0 247.7,306.0 248.4,306.0 249.1,306.0 249.7,306.0 250.4,306.0 251.1,306.0 251.7,306.0 252.4,306.0 253.1,306.0 253.7,306.0 254.4,306.0 255.1,306.0 255.7,306.0 256.4,306.0 257.1,306.0 257.7,306.0 258.4,306.0 259.1,306.0 259.8,306.0 260.4,306.0 261.1,306.0 261.8,306.0 262.4,306.0 263.1,306.0 263.8,306.0 264.4,306.0 265.1,306.0 265.8,306.0 266.4,306.0 267.1,306.0 267.8,306.0 268.4,306.0 269.1,306.0 269.8,306.0 270.4,306.0 271.1,306.0 271.8,306.0 272.4,306.0 273.1,306.0 273.8,306.0 274.4,306.0 275.1,306.0 275.8,306.0 276.5,306.0 277.1,306.0 277.8,306.0 278.5,306.0 279.1,306.0 279.8,306.0 280.5,306.0 281.1,306.0 281.8,306.0 282.5,306.0 283.1,306.0 283.8,306.0 284.5,306.0 285.1,306.0 285.8,306.0 286.5,306.0 287.1,306.0 287.8,306.0 288.5,306.0 289.1,306.0 289.8,306.0 290.5,306.0 291.1,306.0 291.8,306.0 292.5,306.0 293.2,306.0 293.8,306.0 294.5,306.0 295.2,306.0 295.8,306.0 296.5,306.0 297.2,306.0 297.8,306.0 298.5,306.0 299.2,306.0 299.8,306.0 300.5,306.0 301.2,306.0 301.8,306.0 302.5,306.0 303.2,306.0 303.8,306.0 304.5,306.0 305.2,306.0 305.8,306.0 306.5,306.0 307.2,306.0 307.8,306.0 308.5,306.0 309.2,306.0 309.9,306.0 310.5,306.0 311.2,306.0 311.9,306.0 312.5,306.0 313.2,306.0 313.9,306.0 314.5,306.0 315.2,306.0 315.9,306.0 316.5,306.0 317.2,306.0 317.9,306.0 318.5,306.0 319.2,306.0 319.9,306.0 320.5,306.0 321.2,306.0 321.9,306.0 322.5,306.0 323.2,306.0 323.9,306.0 324.5,306.0 325.2,306.0 325.9,306.0 326.6,306.0 327.2,306.0 327.9,306.0 328.6,306.0 329.2,306.0 329.9,306.0 330.6,306.0 331.2,306.0 331.9,306.0 332.6,306.0 333.2,306.0 333.9,306.0 334.6,306.0 335.2,306.0 335.9,306.0 336.6,306.0 337.2,306.0 337.9,306.0 338.6,306.0 339.2,306.0 339.9,306.0 340.6,306.0 341.2,306.0 341.9,306.0 342.6,306.0 343.3,306.0 343.9,306.0 344.6,306.0 345.3,306.0 345.9,306.0 346.6,306.0 347.3,306.0 347.9,306.0 348.6,306.0 349.3,306.0 349.9,306.0 350.6,306.0 351.3,306.0 351.9,306.0 352.6,306.0 353.3,306.0 353.9,306.0 354.6,306.0 355.3,306.0 355.9,306.0 356.6,306.0 357.3,306.0 357.9,306.0 358.6,306.0 359.3,306.0 360.0,306.0 360.6,306.0 361.3,306.0 362.0,306.0 362.6,306.0 363.3,306.0 364.0,306.0 364.6,306.0 365.3,306.0 366.0,306.0 366.6,306.0 367.3,306.0 368.0,306.0 368.6,306.0 369.3,306.0 370.0,306.0 370.6,306.0 371.3,306.0 372.0,306.0 372.6,306.0 373.3,306.0 374.0,306.0 374.6,306.0 375.3,306.0 376.0,306.0 376.7,306.0 377.3,306.0 378.0,306.0 378.7,306.0 379.3,306.0 380.0,306.0 380.7,306.0 381.3,306.0 382.0,306.0 382.7,306.0 383.3,306.0" stroke="#4477aa"/>
<polyline class="line" points="50.7,50.0 51.3,50.0 52.0,50.0 52.7,50.0 53.3,50.3 54.0,78.2 54.7,99.8 55.3,117.3 56.0,131.7 56.7,144.0 57.3,154.5 58.0,163.6 58.7,171.7 59.4,179.0 60.0,185.4 60.7,191.3 61.4,196.6 62.0,201.5 62.7,206.0 63.4,210.2 64.0,214.0 64.7,217.6 65.4,220.9 66.0,224.1 66.7,227.0 67.4,229.8 68.0,232.4 68.7,234.9 69.4,237.3 70.0,239.5 70.7,241.6 71.4,243.6 72.0,245.6 72.7,247.4 73.4,249.2 74.0,250.9 74.7,252.5 75.4,254.0 76.1,255.5 76.7,257.0 77.4,258.4 78.1,259.7 78.7,261.0 79.4,262.2 80.1,263.4 80.7,264.6 81.4,265.7 82.1,266.8 82.7,267.9 83.4,268.9 84.1,269.9 84.7,270.9 85.4,271.8 86.1,272.7 86.7,273.6 87.4,274.5 88.1,275.3 88.7,276.1 89.4,276.9 90.1,277.7 90.7,278.5 91.4,279.2 92.1,279.9 92.8,280.6 93.4,281.3 94.1,282.0 94.8,282.7 95.4,283.3 96.1,283.9 96.8,284.6 97.4,285.2 98.1,285.8 98.8,286.3 99.4,286.9 100.1,287.5 100.8,288.0 101.4,288.5 102.1,289.1 102.8,289.6 103.4,290.1 104.1,290.6 104.8,291.1 105.4,291.5 106.1,292.0 106.8,292.5 107.4,292.9 108.1,293.4 108.8,293.8 109.5,294.2 110.1,294.7 110.8,295.1 111.5,295.5 112.1,295.9 112.8,296.3 113.5,296.7 114.1,297.0 114.8,297.4 115.5,297.8 116.1,298.2 116.8,298.5 117.5,298.9 118.1,299.2 118.8,299.6 119.5,299.9 120.1,300.2 120.8,300.6 121.5,300.9 122.1,301.2 122.8,301.5 123.5,301.8 124.1,302.2 124.8,302.5 125.5,302.8 126.2,303.1 126.8,303.3 127.5,303.6 128.2,303.9 128.8,304.2 129.5,304.5 130.2,304.7 130.8,305.0 131.5,305.3 132.2,305.5 132.8,305.8 133.5,306.1 134.2,306.3 134.8,306.6 135.5,306.8 136.2,307.1 136.8,307.3 137.5,307.5 138.2,307.8 138.8,308.0 139.5,308.2 140.2,308.5 140.8,308.7 141.5,308.9 142.2,309.1 142.9,309.4 143.5,309.6 144.2,309.8 144.9,310.0 145.5,310.2 146.2,310.4 146.9,310.6 147.5,310.8 148.2,311.0 148.9,311.2 149.5,311.4 150.2,311.6 150.9,311.8 151.5,312.0 152.2,312.2 152.9,312.4 153.5,312.6 154.2,312.8 154.9,313.0 155.5,313.1 156.2,313.3 156.9,313.5 157.5,313.7 158.2,313.8 158.9,314.0 159.6,314.2 160.2,314.4 160.9,314.5 161.6,314.7 162.2,314.8 162.9,315.0 163.6,315.2 164.2,315.3 164.9,315.5 165.6,315.7 166.2,315.8 166.9,316.0 167.6,316.1 168.2,316.3 168.9,316.4 169.6,316.6 170.2,316.7 170.9,316.9 171.6,317.0 172.2,317.2 172.9,317.3 173.6,317.4 174.2,317.6 174.9,317.7 175.6,317.9 176.3,318.0 176.9,318.1 177.6,318.3 178.3,318.4 178.9,318.5 179.6,318.7 180.3,318.8 180.9,318.9 181.6,319.1 182.3,319.2 182.9,319.3 183.6,319.5 184.3,319.6 184.9,319.7 185.6,319.8 186.3,320.0 186.9,320.1 187.6,320.2 188.3,320.3 188.9,320.4 189.6,320.6 190.3,320.7 190.9,320.8 191.6,320.9 192.3,321.0 193.0,321.1 193.6,321.2 194.3,321.4 195.0,321.5 195.6,321.6 196.3,321.7 197.0,321.8 197.6,321.9 198.3,322.0 199.0,322.1 199.6,322.2 200.3,322.3 201.0,322.5 201.6,322.6 202.3,322.7 203.0,322.8 203.6,322.9 204.3,323.0 205.0,323.1 205.6,323.2 206.3,323.3 207.0,323.4 207.6,323.5 208.3,323.6 209.0,323.7 209.7,323.8 210.3,323.9 211.0,324.0 211.7,324.0 212.3,324.1 213.0,324.2 213.7,324.3 214.3,324.4 215.0,324.5 215.7,324.6 216.3,324.7 217.0,324.8 217.7,324.9 218.3,325.0 219.0,325.1 219.7,325.1 220.3,325.2 221.0,325.3 221.7,325.4 222.3,325.5 223.0,325.6 223.7,325.7 224.3,325.8 225.0,325.8 225.7,325.9 226.4,326.0 227.0,326.1 227.7,326.2 228.4,326.3 229.0,326.3 229.7,326.4 230.4,326.5 231.0,326.6 231.7,326.7 232.4,326.7 233.0,326.8 233.7,326.9 234.4,327.0 235.0,327.1 235.7,327.1 236.4,327.2 237.0,327.3 237.7,327.4 238.4,327.4 239.0,327.5 239.7,327.6 240.4,327.7 241.0,327.7 241.7,327.8 242.4,327.9 243.1,328.0 243.7,328.0 244.4,328.1 245.1,328.2 245.7,328.2 246.4,328.3 247.1,328.4 247.7,328.5 248.4,328.5 249.1,328.6 249.7,328.7 250.4,328.7 251.1,328.8 251.7,328.9 252.4,328.9 253.1,329.0 253.7,329.1 254.4,329.1 255.1,329.2 255.7,329.3 256.4,329.3 257.1,329.4 257.7,329.5 258.4,329.5 259.1,329.6 259.8,329.7 260.4,329.7 261.1,329.8 261.8,329.9 262.4,329.9 263.1,330.0 263.8,330.0 264.4,330.1 265.1,330.2 265.8,330.2 266.4,330.3 267.1,330.3 267.8,330.4 268.4,330.5 269.1,330.5 269.8,330.6 270.4,330.7 271.1,330.7 271.8,330.8 272.4,330.8 273.1,330.9 273.8,330.9 274.4,331.0 275.1,331.1 275.8,331.1 276.5,331.2 277.1,331.2 277.8,331.3 278.5,331.3 279.1,331.4 279.8,331.5 280.5,331.5 281.1,331.6 281.8,331.6 282.5,331.7 283.1,331.7 283.8,331.8 284.5,331.8 285.1,331.9 285.8,332.0 286.5,332.0 287.1,332.1 287.8,332.1 288.5,332.2 289.1,332.2 289.8,332.3 290.5,332.3 291.1,332.4 291.8,332.4 292.5,332.5 293.2,332.5 293.8,332.6 294.5,332.6 295.2,332.7 295.8,332.7 296.5,332.8 297.2,332.8 297.8,332.9 298.5,332.9 299.2,333.0 299.8,333.0 300.5,333.1 301.2,333.1 301.8,333.2 302.5,333.2 303.2,333.3 303.8,333.3 304.5,333.4 305.2,333.4 305.8,333.5 306.5,333.5 307.2,333.6 307.8,333.6 308.5,333.7 309.2,333.7 309.9,333.8 310.5,333.8 311.2,333.8 311.9,333.9 312.5,333.9 313.2,334.0 313.9,334.0 314.5,334.1 315.2,334.1 315.9,334.2 316.5,334.2 317.2,334.3 317.9,334.3 318.5,334.3 319.2,334.4 319.9,334.4 320.5,334.5 321.2,334.5 321.9,334.6 322.5,334.6 323.2,334.7 323.9,334.7 324.5,334.7 325.2,334.8 325.9,334.8 326.6,334.9 327.2,334.9 327.9,335.0 328.6,335.0 329.2,335.0 329.9,335.1 330.6,335.1 331.2,335.2 331.9,335.2 332.6,335.2 333.2,335.3 333.9,335.3 334.6,335.4 335.2,335.4 335.9,335.4 336.6,335.5 337.2,335.5 337.9,335.6 338.6,335.6 339.2,335.6 339.9,335.7 340.6,335.7 341.2,335.8 341.9,335.8 342.6,335.8 343.3,335.9 343.9,335.9 344.6,336.0 345.3,336.0 345.9,336.0 346.6,336.1 347.3,336.1 347.9,336.2 348.6,336.2 349.3,336.2 349.9,336.3 350.6,336.3 351.3,336.3 351.9,336.4 352.6,336.4 353.3,336.5 353.9,336.5 354.6,336.5 355.3,336.6 355.9,336.6 356.6,336.6 357.3,336.7 357.9,336.7 358.6,336.7 359.3,336.8 360.0,336.8 360.6,336.9 361.3,336.9 362.0,336.9 362.6,337.0 363.3,337.0 364.0,337.0 364.6,337.1 365.3,337.1 366.0,337.1 366.6,337.2 367.3,337.2 368.0,337.2 368.6,337.3 369.3,337.3 370.0,337.3 370.6,337.4 371.3,337.4 372.0,337.4 372.6,337.5 373.3,337.5 374.0,337.5 374.6,337.6 375.3,337.6 376.0,337.6 376.7,337.7 377.3,337.7 378.0,337.7 378.7,337.8 379.3,337.8 380.0,337.8 380.7,337.9 381.3,337.9 382.0,337.9 382.7,338.0 383.3,338.0" stroke="#228833"/>
<line x1="200.0" y1="70" x2="224.0" y2="70" stroke="#4477aa" stroke-width="3"/>
<text class="label" x="230.0" y="74">old bias=1</text>
<line x1="200.0" y1="90" x2="224.0" y2="90" stroke="#228833" stroke-width="3"/>
<text class="label" x="230.0" y="94">new bias=2</text>
<text class="title" x="433.3333333333333" y="30">More bias = more low t</text>
<line class="grid" x1="433.3" y1="50" x2="433.3" y2="370"/>
<text class="label" x="425.3" y="390.0">0</text>
<line class="grid" x1="516.7" y1="50" x2="516.7" y2="370"/>
<text class="label" x="508.7" y="390.0">0.25</text>
<line class="grid" x1="600.0" y1="50" x2="600.0" y2="370"/>
<text class="label" x="592.0" y="390.0">0.5</text>
<line class="grid" x1="683.3" y1="50" x2="683.3" y2="370"/>
<text class="label" x="675.3" y="390.0">0.75</text>
<line class="grid" x1="766.7" y1="50" x2="766.7" y2="370"/>
<text class="label" x="758.7" y="390.0">1</text>
<line class="grid" x1="433.3333333333333" y1="370.0" x2="766.6666666666666" y2="370.0"/>
<text class="label" x="398.3333333333333" y="374.0">0</text>
<line class="grid" x1="433.3333333333333" y1="306.0" x2="766.6666666666666" y2="306.0"/>
<text class="label" x="398.3333333333333" y="310.0">1</text>
<line class="grid" x1="433.3333333333333" y1="242.0" x2="766.6666666666666" y2="242.0"/>
<text class="label" x="398.3333333333333" y="246.0">2</text>
<line class="grid" x1="433.3333333333333" y1="178.0" x2="766.6666666666666" y2="178.0"/>
<text class="label" x="398.3333333333333" y="182.0">3</text>
<line class="grid" x1="433.3333333333333" y1="114.0" x2="766.6666666666666" y2="114.0"/>
<text class="label" x="398.3333333333333" y="118.0">4</text>
<line class="grid" x1="433.3333333333333" y1="50.0" x2="766.6666666666666" y2="50.0"/>
<text class="label" x="398.3333333333333" y="54.0">5</text>
<line class="axis" x1="433.3333333333333" y1="370" x2="766.6666666666666" y2="370"/>
<line class="axis" x1="433.3333333333333" y1="50" x2="433.3333333333333" y2="370"/>
<text x="565.0" y="410.0">t</text>
<text transform="translate(391.3,245.0) rotate(-90)">density</text>
<polyline class="line" points="434.0,369.7 434.7,369.5 435.3,369.2 436.0,369.0 436.7,368.7 437.3,368.5 438.0,368.2 438.7,367.9 439.3,367.7 440.0,367.4 440.7,367.2 441.3,366.9 442.0,366.7 442.7,366.4 443.4,366.2 444.0,365.9 444.7,365.6 445.4,365.4 446.0,365.1 446.7,364.9 447.4,364.6 448.0,364.4 448.7,364.1 449.4,363.8 450.0,363.6 450.7,363.3 451.4,363.1 452.0,362.8 452.7,362.6 453.4,362.3 454.0,362.0 454.7,361.8 455.4,361.5 456.0,361.3 456.7,361.0 457.4,360.8 458.0,360.5 458.7,360.3 459.4,360.0 460.1,359.7 460.7,359.5 461.4,359.2 462.1,359.0 462.7,358.7 463.4,358.5 464.1,358.2 464.7,357.9 465.4,357.7 466.1,357.4 466.7,357.2 467.4,356.9 468.1,356.7 468.7,356.4 469.4,356.1 470.1,355.9 470.7,355.6 471.4,355.4 472.1,355.1 472.7,354.9 473.4,354.6 474.1,354.4 474.7,354.1 475.4,353.8 476.1,353.6 476.8,353.3 477.4,353.1 478.1,352.8 478.8,352.6 479.4,352.3 480.1,352.0 480.8,351.8 481.4,351.5 482.1,351.3 482.8,351.0 483.4,350.8 484.1,350.5 484.8,350.2 485.4,350.0 486.1,349.7 486.8,349.5 487.4,349.2 488.1,349.0 488.8,348.7 489.4,348.5 490.1,348.2 490.8,347.9 491.4,347.7 492.1,347.4 492.8,347.2 493.5,346.9 494.1,346.7 494.8,346.4 495.5,346.1 496.1,345.9 496.8,345.6 497.5,345.4 498.1,345.1 498.8,344.9 499.5,344.6 500.1,344.3 500.8,344.1 501.5,343.8 502.1,343.6 502.8,343.3 503.5,343.1 504.1,342.8 504.8,342.6 505.5,342.3 506.1,342.0 506.8,341.8 507.5,341.5 508.1,341.3 508.8,341.0 509.5,340.8 510.2,340.5 510.8,340.2 511.5,340.0 512.2,339.7 512.8,339.5 513.5,339.2 514.2,339.0 514.8,338.7 515.5,338.4 516.2,338.2 516.8,337.9 517.5,337.7 518.2,337.4 518.8,337.2 519.5,336.9 520.2,336.7 520.8,336.4 521.5,336.1 522.2,335.9 522.8,335.6 523.5,335.4 524.2,335.1 524.8,334.9 525.5,334.6 526.2,334.3 526.9,334.1 527.5,333.8 528.2,333.6 528.9,333.3 529.5,333.1 530.2,332.8 530.9,332.5 531.5,332.3 532.2,332.0 532.9,331.8 533.5,331.5 534.2,331.3 534.9,331.0 535.5,330.8 536.2,330.5 536.9,330.2 537.5,330.0 538.2,329.7 538.9,329.5 539.5,329.2 540.2,329.0 540.9,328.7 541.5,328.4 542.2,328.2 542.9,327.9 543.6,327.7 544.2,327.4 544.9,327.2 545.6,326.9 546.2,326.6 546.9,326.4 547.6,326.1 548.2,325.9 548.9,325.6 549.6,325.4 550.2,325.1 550.9,324.9 551.6,324.6 552.2,324.3 552.9,324.1 553.6,323.8 554.2,323.6 554.9,323.3 555.6,323.1 556.2,322.8 556.9,322.5 557.6,322.3 558.2,322.0 558.9,321.8 559.6,321.5 560.3,321.3 560.9,321.0 561.6,320.7 562.3,320.5 562.9,320.2 563.6,320.0 564.3,319.7 564.9,319.5 565.6,319.2 566.3,319.0 566.9,318.7 567.6,318.4 568.3,318.2 568.9,317.9 569.6,317.7 570.3,317.4 570.9,317.2 571.6,316.9 572.3,316.6 572.9,316.4 573.6,316.1 574.3,315.9 574.9,315.6 575.6,315.4 576.3,315.1 577.0,314.8 577.6,314.6 578.3,314.3 579.0,314.1 579.6,313.8 580.3,313.6 581.0,313.3 581.6,313.1 582.3,312.8 583.0,312.5 583.6,312.3 584.3,312.0 585.0,311.8 585.6,311.5 586.3,311.3 587.0,311.0 587.6,310.7 588.3,310.5 589.0,310.2 589.6,310.0 590.3,309.7 591.0,309.5 591.6,309.2 592.3,308.9 593.0,308.7 593.7,308.4 594.3,308.2 595.0,307.9 595.7,307.7 596.3,307.4 597.0,307.2 597.7,306.9 598.3,306.6 599.0,306.4 599.7,306.1 600.3,305.9 601.0,305.6 601.7,305.4 602.3,305.1 603.0,304.8 603.7,304.6 604.3,304.3 605.0,304.1 605.7,303.8 606.3,303.6 607.0,303.3 607.7,303.1 608.4,302.8 609.0,302.5 609.7,302.3 610.4,302.0 611.0,301.8 611.7,301.5 612.4,301.3 613.0,301.0 613.7,300.7 614.4,300.5 615.0,300.2 615.7,300.0 616.4,299.7 617.0,299.5 617.7,299.2 618.4,298.9 619.0,298.7 619.7,298.4 620.4,298.2 621.0,297.9 621.7,297.7 622.4,297.4 623.0,297.2 623.7,296.9 624.4,296.6 625.1,296.4 625.7,296.1 626.4,295.9 627.1,295.6 627.7,295.4 628.4,295.1 629.1,294.8 629.7,294.6 630.4,294.3 631.1,294.1 631.7,293.8 632.4,293.6 633.1,293.3 633.7,293.0 634.4,292.8 635.1,292.5 635.7,292.3 636.4,292.0 637.1,291.8 637.7,291.5 638.4,291.3 639.1,291.0 639.7,290.7 640.4,290.5 641.1,290.2 641.8,290.0 642.4,289.7 643.1,289.5 643.8,289.2 644.4,288.9 645.1,288.7 645.8,288.4 646.4,288.2 647.1,287.9 647.8,287.7 648.4,287.4 649.1,287.1 649.8,286.9 650.4,286.6 651.1,286.4 651.8,286.1 652.4,285.9 653.1,285.6 653.8,285.4 654.4,285.1 655.1,284.8 655.8,284.6 656.4,284.3 657.1,284.1 657.8,283.8 658.5,283.6 659.1,283.3 659.8,283.0 660.5,282.8 661.1,282.5 661.8,282.3 662.5,282.0 663.1,281.8 663.8,281.5 664.5,281.2 665.1,281.0 665.8,280.7 666.5,280.5 667.1,280.2 667.8,280.0 668.5,279.7 669.1,279.5 669.8,279.2 670.5,278.9 671.1,278.7 671.8,278.4 672.5,278.2 673.1,277.9 673.8,277.7 674.5,277.4 675.2,277.1 675.8,276.9 676.5,276.6 677.2,276.4 677.8,276.1 678.5,275.9 679.2,275.6 679.8,275.3 680.5,275.1 681.2,274.8 681.8,274.6 682.5,274.3 683.2,274.1 683.8,273.8 684.5,273.6 685.2,273.3 685.8,273.0 686.5,272.8 687.2,272.5 687.8,272.3 688.5,272.0 689.2,271.8 689.8,271.5 690.5,271.2 691.2,271.0 691.9,270.7 692.5,270.5 693.2,270.2 693.9,270.0 694.5,269.7 695.2,269.4 695.9,269.2 696.5,268.9 697.2,268.7 697.9,268.4 698.5,268.2 699.2,267.9 699.9,267.7 700.5,267.4 701.2,267.1 701.9,266.9 702.5,266.6 703.2,266.4 703.9,266.1 704.5,265.9 705.2,265.6 705.9,265.3 706.5,265.1 707.2,264.8 707.9,264.6 708.6,264.3 709.2,264.1 709.9,263.8 710.6,263.5 711.2,263.3 711.9,263.0 712.6,262.8 713.2,262.5 713.9,262.3 714.6,262.0 715.2,261.8 715.9,261.5 716.6,261.2 717.2,261.0 717.9,260.7 718.6,260.5 719.2,260.2 719.9,260.0 720.6,259.7 721.2,259.4 721.9,259.2 722.6,258.9 723.2,258.7 723.9,258.4 724.6,258.2 725.3,257.9 725.9,257.6 726.6,257.4 727.3,257.1 727.9,256.9 728.6,256.6 729.3,256.4 729.9,256.1 730.6,255.9 731.3,255.6 731.9,255.3 732.6,255.1 733.3,254.8 733.9,254.6 734.6,254.3 735.3,254.1 735.9,253.8 736.6,253.5 737.3,253.3 737.9,253.0 738.6,252.8 739.3,252.5 739.9,252.3 740.6,252.0 741.3,251.7 742.0,251.5 742.6,251.2 743.3,251.0 744.0,250.7 744.6,250.5 745.3,250.2 746.0,250.0 746.6,249.7 747.3,249.4 748.0,249.2 748.6,248.9 749.3,248.7 750.0,248.4 750.6,248.2 751.3,247.9 752.0,247.6 752.6,247.4 753.3,247.1 754.0,246.9 754.6,246.6 755.3,246.4 756.0,246.1 756.6,245.8 757.3,245.6 758.0,245.3 758.7,245.1 759.3,244.8 760.0,244.6 760.7,244.3 761.3,244.1 762.0,243.8 762.7,243.5 763.3,243.3 764.0,243.0 764.7,242.8 765.3,242.5 766.0,242.3 766.7,242.0" stroke="#cc6677"/>
<polyline class="line" points="434.0,306.0 434.7,306.0 435.3,306.0 436.0,306.0 436.7,306.0 437.3,306.0 438.0,306.0 438.7,306.0 439.3,306.0 440.0,306.0 440.7,306.0 441.3,306.0 442.0,306.0 442.7,306.0 443.4,306.0 444.0,306.0 444.7,306.0 445.4,306.0 446.0,306.0 446.7,306.0 447.4,306.0 448.0,306.0 448.7,306.0 449.4,306.0 450.0,306.0 450.7,306.0 451.4,306.0 452.0,306.0 452.7,306.0 453.4,306.0 454.0,306.0 454.7,306.0 455.4,306.0 456.0,306.0 456.7,306.0 457.4,306.0 458.0,306.0 458.7,306.0 459.4,306.0 460.1,306.0 460.7,306.0 461.4,306.0 462.1,306.0 462.7,306.0 463.4,306.0 464.1,306.0 464.7,306.0 465.4,306.0 466.1,306.0 466.7,306.0 467.4,306.0 468.1,306.0 468.7,306.0 469.4,306.0 470.1,306.0 470.7,306.0 471.4,306.0 472.1,306.0 472.7,306.0 473.4,306.0 474.1,306.0 474.7,306.0 475.4,306.0 476.1,306.0 476.8,306.0 477.4,306.0 478.1,306.0 478.8,306.0 479.4,306.0 480.1,306.0 480.8,306.0 481.4,306.0 482.1,306.0 482.8,306.0 483.4,306.0 484.1,306.0 484.8,306.0 485.4,306.0 486.1,306.0 486.8,306.0 487.4,306.0 488.1,306.0 488.8,306.0 489.4,306.0 490.1,306.0 490.8,306.0 491.4,306.0 492.1,306.0 492.8,306.0 493.5,306.0 494.1,306.0 494.8,306.0 495.5,306.0 496.1,306.0 496.8,306.0 497.5,306.0 498.1,306.0 498.8,306.0 499.5,306.0 500.1,306.0 500.8,306.0 501.5,306.0 502.1,306.0 502.8,306.0 503.5,306.0 504.1,306.0 504.8,306.0 505.5,306.0 506.1,306.0 506.8,306.0 507.5,306.0 508.1,306.0 508.8,306.0 509.5,306.0 510.2,306.0 510.8,306.0 511.5,306.0 512.2,306.0 512.8,306.0 513.5,306.0 514.2,306.0 514.8,306.0 515.5,306.0 516.2,306.0 516.8,306.0 517.5,306.0 518.2,306.0 518.8,306.0 519.5,306.0 520.2,306.0 520.8,306.0 521.5,306.0 522.2,306.0 522.8,306.0 523.5,306.0 524.2,306.0 524.8,306.0 525.5,306.0 526.2,306.0 526.9,306.0 527.5,306.0 528.2,306.0 528.9,306.0 529.5,306.0 530.2,306.0 530.9,306.0 531.5,306.0 532.2,306.0 532.9,306.0 533.5,306.0 534.2,306.0 534.9,306.0 535.5,306.0 536.2,306.0 536.9,306.0 537.5,306.0 538.2,306.0 538.9,306.0 539.5,306.0 540.2,306.0 540.9,306.0 541.5,306.0 542.2,306.0 542.9,306.0 543.6,306.0 544.2,306.0 544.9,306.0 545.6,306.0 546.2,306.0 546.9,306.0 547.6,306.0 548.2,306.0 548.9,306.0 549.6,306.0 550.2,306.0 550.9,306.0 551.6,306.0 552.2,306.0 552.9,306.0 553.6,306.0 554.2,306.0 554.9,306.0 555.6,306.0 556.2,306.0 556.9,306.0 557.6,306.0 558.2,306.0 558.9,306.0 559.6,306.0 560.3,306.0 560.9,306.0 561.6,306.0 562.3,306.0 562.9,306.0 563.6,306.0 564.3,306.0 564.9,306.0 565.6,306.0 566.3,306.0 566.9,306.0 567.6,306.0 568.3,306.0 568.9,306.0 569.6,306.0 570.3,306.0 570.9,306.0 571.6,306.0 572.3,306.0 572.9,306.0 573.6,306.0 574.3,306.0 574.9,306.0 575.6,306.0 576.3,306.0 577.0,306.0 577.6,306.0 578.3,306.0 579.0,306.0 579.6,306.0 580.3,306.0 581.0,306.0 581.6,306.0 582.3,306.0 583.0,306.0 583.6,306.0 584.3,306.0 585.0,306.0 585.6,306.0 586.3,306.0 587.0,306.0 587.6,306.0 588.3,306.0 589.0,306.0 589.6,306.0 590.3,306.0 591.0,306.0 591.6,306.0 592.3,306.0 593.0,306.0 593.7,306.0 594.3,306.0 595.0,306.0 595.7,306.0 596.3,306.0 597.0,306.0 597.7,306.0 598.3,306.0 599.0,306.0 599.7,306.0 600.3,306.0 601.0,306.0 601.7,306.0 602.3,306.0 603.0,306.0 603.7,306.0 604.3,306.0 605.0,306.0 605.7,306.0 606.3,306.0 607.0,306.0 607.7,306.0 608.4,306.0 609.0,306.0 609.7,306.0 610.4,306.0 611.0,306.0 611.7,306.0 612.4,306.0 613.0,306.0 613.7,306.0 614.4,306.0 615.0,306.0 615.7,306.0 616.4,306.0 617.0,306.0 617.7,306.0 618.4,306.0 619.0,306.0 619.7,306.0 620.4,306.0 621.0,306.0 621.7,306.0 622.4,306.0 623.0,306.0 623.7,306.0 624.4,306.0 625.1,306.0 625.7,306.0 626.4,306.0 627.1,306.0 627.7,306.0 628.4,306.0 629.1,306.0 629.7,306.0 630.4,306.0 631.1,306.0 631.7,306.0 632.4,306.0 633.1,306.0 633.7,306.0 634.4,306.0 635.1,306.0 635.7,306.0 636.4,306.0 637.1,306.0 637.7,306.0 638.4,306.0 639.1,306.0 639.7,306.0 640.4,306.0 641.1,306.0 641.8,306.0 642.4,306.0 643.1,306.0 643.8,306.0 644.4,306.0 645.1,306.0 645.8,306.0 646.4,306.0 647.1,306.0 647.8,306.0 648.4,306.0 649.1,306.0 649.8,306.0 650.4,306.0 651.1,306.0 651.8,306.0 652.4,306.0 653.1,306.0 653.8,306.0 654.4,306.0 655.1,306.0 655.8,306.0 656.4,306.0 657.1,306.0 657.8,306.0 658.5,306.0 659.1,306.0 659.8,306.0 660.5,306.0 661.1,306.0 661.8,306.0 662.5,306.0 663.1,306.0 663.8,306.0 664.5,306.0 665.1,306.0 665.8,306.0 666.5,306.0 667.1,306.0 667.8,306.0 668.5,306.0 669.1,306.0 669.8,306.0 670.5,306.0 671.1,306.0 671.8,306.0 672.5,306.0 673.1,306.0 673.8,306.0 674.5,306.0 675.2,306.0 675.8,306.0 676.5,306.0 677.2,306.0 677.8,306.0 678.5,306.0 679.2,306.0 679.8,306.0 680.5,306.0 681.2,306.0 681.8,306.0 682.5,306.0 683.2,306.0 683.8,306.0 684.5,306.0 685.2,306.0 685.8,306.0 686.5,306.0 687.2,306.0 687.8,306.0 688.5,306.0 689.2,306.0 689.8,306.0 690.5,306.0 691.2,306.0 691.9,306.0 692.5,306.0 693.2,306.0 693.9,306.0 694.5,306.0 695.2,306.0 695.9,306.0 696.5,306.0 697.2,306.0 697.9,306.0 698.5,306.0 699.2,306.0 699.9,306.0 700.5,306.0 701.2,306.0 701.9,306.0 702.5,306.0 703.2,306.0 703.9,306.0 704.5,306.0 705.2,306.0 705.9,306.0 706.5,306.0 707.2,306.0 707.9,306.0 708.6,306.0 709.2,306.0 709.9,306.0 710.6,306.0 711.2,306.0 711.9,306.0 712.6,306.0 713.2,306.0 713.9,306.0 714.6,306.0 715.2,306.0 715.9,306.0 716.6,306.0 717.2,306.0 717.9,306.0 718.6,306.0 719.2,306.0 719.9,306.0 720.6,306.0 721.2,306.0 721.9,306.0 722.6,306.0 723.2,306.0 723.9,306.0 724.6,306.0 725.3,306.0 725.9,306.0 726.6,306.0 727.3,306.0 727.9,306.0 728.6,306.0 729.3,306.0 729.9,306.0 730.6,306.0 731.3,306.0 731.9,306.0 732.6,306.0 733.3,306.0 733.9,306.0 734.6,306.0 735.3,306.0 735.9,306.0 736.6,306.0 737.3,306.0 737.9,306.0 738.6,306.0 739.3,306.0 739.9,306.0 740.6,306.0 741.3,306.0 742.0,306.0 742.6,306.0 743.3,306.0 744.0,306.0 744.6,306.0 745.3,306.0 746.0,306.0 746.6,306.0 747.3,306.0 748.0,306.0 748.6,306.0 749.3,306.0 750.0,306.0 750.6,306.0 751.3,306.0 752.0,306.0 752.6,306.0 753.3,306.0 754.0,306.0 754.6,306.0 755.3,306.0 756.0,306.0 756.6,306.0 757.3,306.0 758.0,306.0 758.7,306.0 759.3,306.0 760.0,306.0 760.7,306.0 761.3,306.0 762.0,306.0 762.7,306.0 763.3,306.0 764.0,306.0 764.7,306.0 765.3,306.0 766.0,306.0 766.7,306.0" stroke="#4477aa"/>
<polyline class="line" points="434.0,50.0 434.7,50.0 435.3,50.0 436.0,50.0 436.7,50.3 437.3,78.2 438.0,99.8 438.7,117.3 439.3,131.7 440.0,144.0 440.7,154.5 441.3,163.6 442.0,171.7 442.7,179.0 443.4,185.4 444.0,191.3 444.7,196.6 445.4,201.5 446.0,206.0 446.7,210.2 447.4,214.0 448.0,217.6 448.7,220.9 449.4,224.1 450.0,227.0 450.7,229.8 451.4,232.4 452.0,234.9 452.7,237.3 453.4,239.5 454.0,241.6 454.7,243.6 455.4,245.6 456.0,247.4 456.7,249.2 457.4,250.9 458.0,252.5 458.7,254.0 459.4,255.5 460.1,257.0 460.7,258.4 461.4,259.7 462.1,261.0 462.7,262.2 463.4,263.4 464.1,264.6 464.7,265.7 465.4,266.8 466.1,267.9 466.7,268.9 467.4,269.9 468.1,270.9 468.7,271.8 469.4,272.7 470.1,273.6 470.7,274.5 471.4,275.3 472.1,276.1 472.7,276.9 473.4,277.7 474.1,278.5 474.7,279.2 475.4,279.9 476.1,280.6 476.8,281.3 477.4,282.0 478.1,282.7 478.8,283.3 479.4,283.9 480.1,284.6 480.8,285.2 481.4,285.8 482.1,286.3 482.8,286.9 483.4,287.5 484.1,288.0 484.8,288.5 485.4,289.1 486.1,289.6 486.8,290.1 487.4,290.6 488.1,291.1 488.8,291.5 489.4,292.0 490.1,292.5 490.8,292.9 491.4,293.4 492.1,293.8 492.8,294.2 493.5,294.7 494.1,295.1 494.8,295.5 495.5,295.9 496.1,296.3 496.8,296.7 497.5,297.0 498.1,297.4 498.8,297.8 499.5,298.2 500.1,298.5 500.8,298.9 501.5,299.2 502.1,299.6 502.8,299.9 503.5,300.2 504.1,300.6 504.8,300.9 505.5,301.2 506.1,301.5 506.8,301.8 507.5,302.2 508.1,302.5 508.8,302.8 509.5,303.1 510.2,303.3 510.8,303.6 511.5,303.9 512.2,304.2 512.8,304.5 513.5,304.7 514.2,305.0 514.8,305.3 515.5,305.5 516.2,305.8 516.8,306.1 517.5,306.3 518.2,306.6 518.8,306.8 519.5,307.1 520.2,307.3 520.8,307.5 521.5,307.8 522.2,308.0 522.8,308.2 523.5,308.5 524.2,308.7 524.8,308.9 525.5,309.1 526.2,309.4 526.9,309.6 527.5,309.8 528.2,310.0 528.9,310.2 529.5,310.4 530.2,310.6 530.9,310.8 531.5,311.0 532.2,311.2 532.9,311.4 533.5,311.6 534.2,311.8 534.9,312.0 535.5,312.2 536.2,312.4 536.9,312.6 537.5,312.8 538.2,313.0 538.9,313.1 539.5,313.3 540.2,313.5 540.9,313.7 541.5,313.8 542.2,314.0 542.9,314.2 543.6,314.4 544.2,314.5 544.9,314.7 545.6,314.8 546.2,315.0 546.9,315.2 547.6,315.3 548.2,315.5 548.9,315.7 549.6,315.8 550.2,316.0 550.9,316.1 551.6,316.3 552.2,316.4 552.9,316.6 553.6,316.7 554.2,316.9 554.9,317.0 555.6,317.2 556.2,317.3 556.9,317.4 557.6,317.6 558.2,317.7 558.9,317.9 559.6,318.0 560.3,318.1 560.9,318.3 561.6,318.4 562.3,318.5 562.9,318.7 563.6,318.8 564.3,318.9 564.9,319.1 565.6,319.2 566.3,319.3 566.9,319.5 567.6,319.6 568.3,319.7 568.9,319.8 569.6,320.0 570.3,320.1 570.9,320.2 571.6,320.3 572.3,320.4 572.9,320.6 573.6,320.7 574.3,320.8 574.9,320.9 575.6,321.0 576.3,321.1 577.0,321.2 577.6,321.4 578.3,321.5 579.0,321.6 579.6,321.7 580.3,321.8 581.0,321.9 581.6,322.0 582.3,322.1 583.0,322.2 583.6,322.3 584.3,322.5 585.0,322.6 585.6,322.7 586.3,322.8 587.0,322.9 587.6,323.0 588.3,323.1 589.0,323.2 589.6,323.3 590.3,323.4 591.0,323.5 591.6,323.6 592.3,323.7 593.0,323.8 593.7,323.9 594.3,324.0 595.0,324.0 595.7,324.1 596.3,324.2 597.0,324.3 597.7,324.4 598.3,324.5 599.0,324.6 599.7,324.7 600.3,324.8 601.0,324.9 601.7,325.0 602.3,325.1 603.0,325.1 603.7,325.2 604.3,325.3 605.0,325.4 605.7,325.5 606.3,325.6 607.0,325.7 607.7,325.8 608.4,325.8 609.0,325.9 609.7,326.0 610.4,326.1 611.0,326.2 611.7,326.3 612.4,326.3 613.0,326.4 613.7,326.5 614.4,326.6 615.0,326.7 615.7,326.7 616.4,326.8 617.0,326.9 617.7,327.0 618.4,327.1 619.0,327.1 619.7,327.2 620.4,327.3 621.0,327.4 621.7,327.4 622.4,327.5 623.0,327.6 623.7,327.7 624.4,327.7 625.1,327.8 625.7,327.9 626.4,328.0 627.1,328.0 627.7,328.1 628.4,328.2 629.1,328.2 629.7,328.3 630.4,328.4 631.1,328.5 631.7,328.5 632.4,328.6 633.1,328.7 633.7,328.7 634.4,328.8 635.1,328.9 635.7,328.9 636.4,329.0 637.1,329.1 637.7,329.1 638.4,329.2 639.1,329.3 639.7,329.3 640.4,329.4 641.1,329.5 641.8,329.5 642.4,329.6 643.1,329.7 643.8,329.7 644.4,329.8 645.1,329.9 645.8,329.9 646.4,330.0 647.1,330.0 647.8,330.1 648.4,330.2 649.1,330.2 649.8,330.3 650.4,330.3 651.1,330.4 651.8,330.5 652.4,330.5 653.1,330.6 653.8,330.7 654.4,330.7 655.1,330.8 655.8,330.8 656.4,330.9 657.1,330.9 657.8,331.0 658.5,331.1 659.1,331.1 659.8,331.2 660.5,331.2 661.1,331.3 661.8,331.3 662.5,331.4 663.1,331.5 663.8,331.5 664.5,331.6 665.1,331.6 665.8,331.7 666.5,331.7 667.1,331.8 667.8,331.8 668.5,331.9 669.1,332.0 669.8,332.0 670.5,332.1 671.1,332.1 671.8,332.2 672.5,332.2 673.1,332.3 673.8,332.3 674.5,332.4 675.2,332.4 675.8,332.5 676.5,332.5 677.2,332.6 677.8,332.6 678.5,332.7 679.2,332.7 679.8,332.8 680.5,332.8 681.2,332.9 681.8,332.9 682.5,333.0 683.2,333.0 683.8,333.1 684.5,333.1 685.2,333.2 685.8,333.2 686.5,333.3 687.2,333.3 687.8,333.4 688.5,333.4 689.2,333.5 689.8,333.5 690.5,333.6 691.2,333.6 691.9,333.7 692.5,333.7 693.2,333.8 693.9,333.8 694.5,333.8 695.2,333.9 695.9,333.9 696.5,334.0 697.2,334.0 697.9,334.1 698.5,334.1 699.2,334.2 699.9,334.2 700.5,334.3 701.2,334.3 701.9,334.3 702.5,334.4 703.2,334.4 703.9,334.5 704.5,334.5 705.2,334.6 705.9,334.6 706.5,334.7 707.2,334.7 707.9,334.7 708.6,334.8 709.2,334.8 709.9,334.9 710.6,334.9 711.2,335.0 711.9,335.0 712.6,335.0 713.2,335.1 713.9,335.1 714.6,335.2 715.2,335.2 715.9,335.2 716.6,335.3 717.2,335.3 717.9,335.4 718.6,335.4 719.2,335.4 719.9,335.5 720.6,335.5 721.2,335.6 721.9,335.6 722.6,335.6 723.2,335.7 723.9,335.7 724.6,335.8 725.3,335.8 725.9,335.8 726.6,335.9 727.3,335.9 727.9,336.0 728.6,336.0 729.3,336.0 729.9,336.1 730.6,336.1 731.3,336.2 731.9,336.2 732.6,336.2 733.3,336.3 733.9,336.3 734.6,336.3 735.3,336.4 735.9,336.4 736.6,336.5 737.3,336.5 737.9,336.5 738.6,336.6 739.3,336.6 739.9,336.6 740.6,336.7 741.3,336.7 742.0,336.7 742.6,336.8 743.3,336.8 744.0,336.9 744.6,336.9 745.3,336.9 746.0,337.0 746.6,337.0 747.3,337.0 748.0,337.1 748.6,337.1 749.3,337.1 750.0,337.2 750.6,337.2 751.3,337.2 752.0,337.3 752.6,337.3 753.3,337.3 754.0,337.4 754.6,337.4 755.3,337.4 756.0,337.5 756.6,337.5 757.3,337.5 758.0,337.6 758.7,337.6 759.3,337.6 760.0,337.7 760.7,337.7 761.3,337.7 762.0,337.8 762.7,337.8 763.3,337.8 764.0,337.9 764.7,337.9 765.3,337.9 766.0,338.0 766.7,338.0" stroke="#228833"/>
<polyline class="line" points="434.0,50.0 434.7,50.0 435.3,50.0 436.0,50.0 436.7,50.0 437.3,50.0 438.0,50.0 438.7,50.0 439.3,50.0 440.0,69.6 440.7,90.3 441.3,108.0 442.0,123.3 442.7,136.6 443.4,148.4 444.0,158.8 444.7,168.2 445.4,176.7 446.0,184.4 446.7,191.4 447.4,197.8 448.0,203.7 448.7,209.2 449.4,214.2 450.0,218.9 450.7,223.3 451.4,227.4 452.0,231.2 452.7,234.8 453.4,238.2 454.0,241.4 454.7,244.4 455.4,247.3 456.0,250.0 456.7,252.6 457.4,255.1 458.0,257.4 458.7,259.6 459.4,261.8 460.1,263.8 460.7,265.7 461.4,267.6 462.1,269.4 462.7,271.1 463.4,272.8 464.1,274.4 464.7,275.9 465.4,277.4 466.1,278.8 466.7,280.2 467.4,281.5 468.1,282.8 468.7,284.0 469.4,285.2 470.1,286.4 470.7,287.5 471.4,288.6 472.1,289.6 472.7,290.6 473.4,291.6 474.1,292.6 474.7,293.5 475.4,294.5 476.1,295.3 476.8,296.2 477.4,297.0 478.1,297.9 478.8,298.7 479.4,299.4 480.1,300.2 480.8,300.9 481.4,301.7 482.1,302.4 482.8,303.0 483.4,303.7 484.1,304.4 484.8,305.0 485.4,305.6 486.1,306.3 486.8,306.8 487.4,307.4 488.1,308.0 488.8,308.6 489.4,309.1 490.1,309.7 490.8,310.2 491.4,310.7 492.1,311.2 492.8,311.7 493.5,312.2 494.1,312.7 494.8,313.1 495.5,313.6 496.1,314.0 496.8,314.5 497.5,314.9 498.1,315.3 498.8,315.8 499.5,316.2 500.1,316.6 500.8,317.0 501.5,317.4 502.1,317.8 502.8,318.1 503.5,318.5 504.1,318.9 504.8,319.2 505.5,319.6 506.1,319.9 506.8,320.3 507.5,320.6 508.1,320.9 508.8,321.3 509.5,321.6 510.2,321.9 510.8,322.2 511.5,322.5 512.2,322.8 512.8,323.1 513.5,323.4 514.2,323.7 514.8,324.0 515.5,324.3 516.2,324.5 516.8,324.8 517.5,325.1 518.2,325.3 518.8,325.6 519.5,325.9 520.2,326.1 520.8,326.4 521.5,326.6 522.2,326.9 522.8,327.1 523.5,327.3 524.2,327.6 524.8,327.8 525.5,328.0 526.2,328.3 526.9,328.5 527.5,328.7 528.2,328.9 528.9,329.1 529.5,329.4 530.2,329.6 530.9,329.8 531.5,330.0 532.2,330.2 532.9,330.4 533.5,330.6 534.2,330.8 534.9,331.0 535.5,331.2 536.2,331.4 536.9,331.5 537.5,331.7 538.2,331.9 538.9,332.1 539.5,332.3 540.2,332.5 540.9,332.6 541.5,332.8 542.2,333.0 542.9,333.1 543.6,333.3 544.2,333.5 544.9,333.6 545.6,333.8 546.2,334.0 546.9,334.1 547.6,334.3 548.2,334.4 548.9,334.6 549.6,334.7 550.2,334.9 550.9,335.0 551.6,335.2 552.2,335.3 552.9,335.5 553.6,335.6 554.2,335.8 554.9,335.9 555.6,336.0 556.2,336.2 556.9,336.3 557.6,336.5 558.2,336.6 558.9,336.7 559.6,336.9 560.3,337.0 560.9,337.1 561.6,337.2 562.3,337.4 562.9,337.5 563.6,337.6 564.3,337.8 564.9,337.9 565.6,338.0 566.3,338.1 566.9,338.2 567.6,338.4 568.3,338.5 568.9,338.6 569.6,338.7 570.3,338.8 570.9,338.9 571.6,339.0 572.3,339.2 572.9,339.3 573.6,339.4 574.3,339.5 574.9,339.6 575.6,339.7 576.3,339.8 577.0,339.9 577.6,340.0 578.3,340.1 579.0,340.2 579.6,340.3 580.3,340.4 581.0,340.5 581.6,340.6 582.3,340.7 583.0,340.8 583.6,340.9 584.3,341.0 585.0,341.1 585.6,341.2 586.3,341.3 587.0,341.4 587.6,341.5 588.3,341.6 589.0,341.7 589.6,341.8 590.3,341.9 591.0,341.9 591.6,342.0 592.3,342.1 593.0,342.2 593.7,342.3 594.3,342.4 595.0,342.5 595.7,342.6 596.3,342.6 597.0,342.7 597.7,342.8 598.3,342.9 599.0,343.0 599.7,343.1 600.3,343.1 601.0,343.2 601.7,343.3 602.3,343.4 603.0,343.4 603.7,343.5 604.3,343.6 605.0,343.7 605.7,343.8 606.3,343.8 607.0,343.9 607.7,344.0 608.4,344.1 609.0,344.1 609.7,344.2 610.4,344.3 611.0,344.4 611.7,344.4 612.4,344.5 613.0,344.6 613.7,344.6 614.4,344.7 615.0,344.8 615.7,344.8 616.4,344.9 617.0,345.0 617.7,345.1 618.4,345.1 619.0,345.2 619.7,345.3 620.4,345.3 621.0,345.4 621.7,345.5 622.4,345.5 623.0,345.6 623.7,345.6 624.4,345.7 625.1,345.8 625.7,345.8 626.4,345.9 627.1,346.0 627.7,346.0 628.4,346.1 629.1,346.1 629.7,346.2 630.4,346.3 631.1,346.3 631.7,346.4 632.4,346.4 633.1,346.5 633.7,346.6 634.4,346.6 635.1,346.7 635.7,346.7 636.4,346.8 637.1,346.9 637.7,346.9 638.4,347.0 639.1,347.0 639.7,347.1 640.4,347.1 641.1,347.2 641.8,347.2 642.4,347.3 643.1,347.4 643.8,347.4 644.4,347.5 645.1,347.5 645.8,347.6 646.4,347.6 647.1,347.7 647.8,347.7 648.4,347.8 649.1,347.8 649.8,347.9 650.4,347.9 651.1,348.0 651.8,348.0 652.4,348.1 653.1,348.1 653.8,348.2 654.4,348.2 655.1,348.3 655.8,348.3 656.4,348.4 657.1,348.4 657.8,348.5 658.5,348.5 659.1,348.6 659.8,348.6 660.5,348.7 661.1,348.7 661.8,348.8 662.5,348.8 663.1,348.9 663.8,348.9 664.5,348.9 665.1,349.0 665.8,349.0 666.5,349.1 667.1,349.1 667.8,349.2 668.5,349.2 669.1,349.3 669.8,349.3 670.5,349.3 671.1,349.4 671.8,349.4 672.5,349.5 673.1,349.5 673.8,349.6 674.5,349.6 675.2,349.6 675.8,349.7 676.5,349.7 677.2,349.8 677.8,349.8 678.5,349.9 679.2,349.9 679.8,349.9 680.5,350.0 681.2,350.0 681.8,350.1 682.5,350.1 683.2,350.1 683.8,350.2 684.5,350.2 685.2,350.3 685.8,350.3 686.5,350.3 687.2,350.4 687.8,350.4 688.5,350.4 689.2,350.5 689.8,350.5 690.5,350.6 691.2,350.6 691.9,350.6 692.5,350.7 693.2,350.7 693.9,350.8 694.5,350.8 695.2,350.8 695.9,350.9 696.5,350.9 697.2,350.9 697.9,351.0 698.5,351.0 699.2,351.0 699.9,351.1 700.5,351.1 701.2,351.1 701.9,351.2 702.5,351.2 703.2,351.3 703.9,351.3 704.5,351.3 705.2,351.4 705.9,351.4 706.5,351.4 707.2,351.5 707.9,351.5 708.6,351.5 709.2,351.6 709.9,351.6 710.6,351.6 711.2,351.7 711.9,351.7 712.6,351.7 713.2,351.8 713.9,351.8 714.6,351.8 715.2,351.9 715.9,351.9 716.6,351.9 717.2,352.0 717.9,352.0 718.6,352.0 719.2,352.0 719.9,352.1 720.6,352.1 721.2,352.1 721.9,352.2 722.6,352.2 723.2,352.2 723.9,352.3 724.6,352.3 725.3,352.3 725.9,352.4 726.6,352.4 727.3,352.4 727.9,352.4 728.6,352.5 729.3,352.5 729.9,352.5 730.6,352.6 731.3,352.6 731.9,352.6 732.6,352.7 733.3,352.7 733.9,352.7 734.6,352.7 735.3,352.8 735.9,352.8 736.6,352.8 737.3,352.9 737.9,352.9 738.6,352.9 739.3,352.9 739.9,353.0 740.6,353.0 741.3,353.0 742.0,353.0 742.6,353.1 743.3,353.1 744.0,353.1 744.6,353.2 745.3,353.2 746.0,353.2 746.6,353.2 747.3,353.3 748.0,353.3 748.6,353.3 749.3,353.3 750.0,353.4 750.6,353.4 751.3,353.4 752.0,353.4 752.6,353.5 753.3,353.5 754.0,353.5 754.6,353.6 755.3,353.6 756.0,353.6 756.6,353.6 757.3,353.7 758.0,353.7 758.7,353.7 759.3,353.7 760.0,353.8 760.7,353.8 761.3,353.8 762.0,353.8 762.7,353.9 763.3,353.9 764.0,353.9 764.7,353.9 765.3,354.0 766.0,354.0 766.7,354.0" stroke="#aa3377"/>
<line x1="568.3333333333333" y1="70" x2="592.3333333333333" y2="70" stroke="#cc6677" stroke-width="3"/>
<text class="label" x="598.3333333333333" y="74">bias=0.5</text>
<line x1="568.3333333333333" y1="90" x2="592.3333333333333" y2="90" stroke="#4477aa" stroke-width="3"/>
<text class="label" x="598.3333333333333" y="94">bias=1</text>
<line x1="568.3333333333333" y1="110" x2="592.3333333333333" y2="110" stroke="#228833" stroke-width="3"/>
<text class="label" x="598.3333333333333" y="114">bias=2</text>
<line x1="568.3333333333333" y1="130" x2="592.3333333333333" y2="130" stroke="#aa3377" stroke-width="3"/>
<text class="label" x="598.3333333333333" y="134">bias=4</text>
<text class="title" x="816.6666666666666" y="30">Effect of increasing bias</text>
<line class="grid" x1="816.7" y1="50" x2="816.7" y2="370"/>
<text class="label" x="808.7" y="390.0">0</text>
<line class="grid" x1="900.0" y1="50" x2="900.0" y2="370"/>
<text class="label" x="892.0" y="390.0">0.25</text>
<line class="grid" x1="983.3" y1="50" x2="983.3" y2="370"/>
<text class="label" x="975.3" y="390.0">0.5</text>
<line class="grid" x1="1066.7" y1="50" x2="1066.7" y2="370"/>
<text class="label" x="1058.7" y="390.0">0.75</text>
<line class="grid" x1="1150.0" y1="50" x2="1150.0" y2="370"/>
<text class="label" x="1142.0" y="390.0">1</text>
<line class="grid" x1="816.6666666666666" y1="370.0" x2="1150.0" y2="370.0"/>
<text class="label" x="781.6666666666666" y="374.0">0</text>
<line class="grid" x1="816.6666666666666" y1="290.0" x2="1150.0" y2="290.0"/>
<text class="label" x="781.6666666666666" y="294.0">0.25</text>
<line class="grid" x1="816.6666666666666" y1="210.0" x2="1150.0" y2="210.0"/>
<text class="label" x="781.6666666666666" y="214.0">0.5</text>
<line class="grid" x1="816.6666666666666" y1="130.0" x2="1150.0" y2="130.0"/>
<text class="label" x="781.6666666666666" y="134.0">0.75</text>
<line class="grid" x1="816.6666666666666" y1="50.0" x2="1150.0" y2="50.0"/>
<text class="label" x="781.6666666666666" y="54.0">1</text>
<line class="axis" x1="816.6666666666666" y1="370" x2="1150.0" y2="370"/>
<line class="axis" x1="816.6666666666666" y1="50" x2="816.6666666666666" y2="370"/>
<text x="948.3" y="410.0">t_sampling_bias</text>
<text transform="translate(774.7,245.0) rotate(-90)">value</text>
<line class="grid" x1="816.7" y1="50" x2="816.7" y2="370"/>
<text class="label" x="808.7" y="390.0">0.25</text>
<line class="grid" x1="860.1" y1="50" x2="860.1" y2="370"/>
<text class="label" x="852.1" y="390.0">1</text>
<line class="grid" x1="918.1" y1="50" x2="918.1" y2="370"/>
<text class="label" x="910.1" y="390.0">2</text>
<line class="grid" x1="1034.1" y1="50" x2="1034.1" y2="370"/>
<text class="label" x="1026.1" y="390.0">4</text>
<line class="grid" x1="1150.0" y1="50" x2="1150.0" y2="370"/>
<text class="label" x="1142.0" y="390.0">6</text>
<rect x="811.6666666666666" y="375" width="353.3333333333333" height="24" fill="white"/>
<text class="label" x="806.7" y="390.0">0.25</text>
<text class="label" x="850.1" y="390.0">1</text>
<text class="label" x="908.1" y="390.0">2</text>
<text class="label" x="1024.1" y="390.0">4</text>
<text class="label" x="1140.0" y="390.0">6</text>
<polyline class="line" points="816.7,114.0 817.3,116.3 818.0,118.6 818.7,120.9 819.3,123.1 820.0,125.3 820.7,127.4 821.3,129.5 822.0,131.6 822.7,133.6 823.3,135.6 824.0,137.6 824.7,139.5 825.4,141.4 826.0,143.3 826.7,145.1 827.4,146.9 828.0,148.7 828.7,150.4 829.4,152.2 830.0,153.9 830.7,155.5 831.4,157.2 832.0,158.8 832.7,160.4 833.4,161.9 834.0,163.5 834.7,165.0 835.4,166.5 836.0,168.0 836.7,169.5 837.4,170.9 838.0,172.3 838.7,173.7 839.4,175.1 840.0,176.4 840.7,177.8 841.4,179.1 842.1,180.4 842.7,181.7 843.4,183.0 844.1,184.2 844.7,185.5 845.4,186.7 846.1,187.9 846.7,189.1 847.4,190.2 848.1,191.4 848.7,192.5 849.4,193.7 850.1,194.8 850.7,195.9 851.4,197.0 852.1,198.0 852.7,199.1 853.4,200.1 854.1,201.2 854.7,202.2 855.4,203.2 856.1,204.2 856.7,205.2 857.4,206.1 858.1,207.1 858.8,208.1 859.4,209.0 860.1,209.9 860.8,210.8 861.4,211.7 862.1,212.6 862.8,213.5 863.4,214.4 864.1,215.3 864.8,216.1 865.4,217.0 866.1,217.8 866.8,218.6 867.4,219.5 868.1,220.3 868.8,221.1 869.4,221.9 870.1,222.7 870.8,223.4 871.4,224.2 872.1,225.0 872.8,225.7 873.4,226.5 874.1,227.2 874.8,227.9 875.5,228.7 876.1,229.4 876.8,230.1 877.5,230.8 878.1,231.5 878.8,232.2 879.5,232.8 880.1,233.5 880.8,234.2 881.5,234.8 882.1,235.5 882.8,236.2 883.5,236.8 884.1,237.4 884.8,238.1 885.5,238.7 886.1,239.3 886.8,239.9 887.5,240.5 888.1,241.1 888.8,241.7 889.5,242.3 890.1,242.9 890.8,243.5 891.5,244.0 892.2,244.6 892.8,245.2 893.5,245.7 894.2,246.3 894.8,246.8 895.5,247.4 896.2,247.9 896.8,248.5 897.5,249.0 898.2,249.5 898.8,250.0 899.5,250.5 900.2,251.1 900.8,251.6 901.5,252.1 902.2,252.6 902.8,253.1 903.5,253.6 904.2,254.0 904.8,254.5 905.5,255.0 906.2,255.5 906.8,255.9 907.5,256.4 908.2,256.9 908.9,257.3 909.5,257.8 910.2,258.2 910.9,258.7 911.5,259.1 912.2,259.6 912.9,260.0 913.5,260.4 914.2,260.9 914.9,261.3 915.5,261.7 916.2,262.1 916.9,262.6 917.5,263.0 918.2,263.4 918.9,263.8 919.5,264.2 920.2,264.6 920.9,265.0 921.5,265.4 922.2,265.8 922.9,266.2 923.5,266.6 924.2,266.9 924.9,267.3 925.6,267.7 926.2,268.1 926.9,268.5 927.6,268.8 928.2,269.2 928.9,269.6 929.6,269.9 930.2,270.3 930.9,270.6 931.6,271.0 932.2,271.3 932.9,271.7 933.6,272.0 934.2,272.4 934.9,272.7 935.6,273.1 936.2,273.4 936.9,273.7 937.6,274.1 938.2,274.4 938.9,274.7 939.6,275.1 940.2,275.4 940.9,275.7 941.6,276.0 942.3,276.3 942.9,276.6 943.6,277.0 944.3,277.3 944.9,277.6 945.6,277.9 946.3,278.2 946.9,278.5 947.6,278.8 948.3,279.1 948.9,279.4 949.6,279.7 950.3,280.0 950.9,280.3 951.6,280.6 952.3,280.8 952.9,281.1 953.6,281.4 954.3,281.7 954.9,282.0 955.6,282.3 956.3,282.5 956.9,282.8 957.6,283.1 958.3,283.3 959.0,283.6 959.6,283.9 960.3,284.2 961.0,284.4 961.6,284.7 962.3,284.9 963.0,285.2 963.6,285.5 964.3,285.7 965.0,286.0 965.6,286.2 966.3,286.5 967.0,286.7 967.6,287.0 968.3,287.2 969.0,287.5 969.6,287.7 970.3,288.0 971.0,288.2 971.6,288.4 972.3,288.7 973.0,288.9 973.6,289.1 974.3,289.4 975.0,289.6 975.7,289.8 976.3,290.1 977.0,290.3 977.7,290.5 978.3,290.8 979.0,291.0 979.7,291.2 980.3,291.4 981.0,291.7 981.7,291.9 982.3,292.1 983.0,292.3 983.7,292.5 984.3,292.7 985.0,293.0 985.7,293.2 986.3,293.4 987.0,293.6 987.7,293.8 988.3,294.0 989.0,294.2 989.7,294.4 990.3,294.6 991.0,294.8 991.7,295.0 992.4,295.2 993.0,295.4 993.7,295.6 994.4,295.8 995.0,296.0 995.7,296.2 996.4,296.4 997.0,296.6 997.7,296.8 998.4,297.0 999.0,297.2 999.7,297.4 1000.4,297.6 1001.0,297.8 1001.7,298.0 1002.4,298.1 1003.0,298.3 1003.7,298.5 1004.4,298.7 1005.0,298.9 1005.7,299.1 1006.4,299.2 1007.0,299.4 1007.7,299.6 1008.4,299.8 1009.1,300.0 1009.7,300.1 1010.4,300.3 1011.1,300.5 1011.7,300.7 1012.4,300.8 1013.1,301.0 1013.7,301.2 1014.4,301.3 1015.1,301.5 1015.7,301.7 1016.4,301.8 1017.1,302.0 1017.7,302.2 1018.4,302.3 1019.1,302.5 1019.7,302.7 1020.4,302.8 1021.1,303.0 1021.7,303.2 1022.4,303.3 1023.1,303.5 1023.7,303.6 1024.4,303.8 1025.1,304.0 1025.8,304.1 1026.4,304.3 1027.1,304.4 1027.8,304.6 1028.4,304.7 1029.1,304.9 1029.8,305.0 1030.4,305.2 1031.1,305.3 1031.8,305.5 1032.4,305.6 1033.1,305.8 1033.8,305.9 1034.4,306.1 1035.1,306.2 1035.8,306.4 1036.4,306.5 1037.1,306.7 1037.8,306.8 1038.4,307.0 1039.1,307.1 1039.8,307.2 1040.4,307.4 1041.1,307.5 1041.8,307.7 1042.5,307.8 1043.1,307.9 1043.8,308.1 1044.5,308.2 1045.1,308.4 1045.8,308.5 1046.5,308.6 1047.1,308.8 1047.8,308.9 1048.5,309.0 1049.1,309.2 1049.8,309.3 1050.5,309.4 1051.1,309.6 1051.8,309.7 1052.5,309.8 1053.1,310.0 1053.8,310.1 1054.5,310.2 1055.1,310.3 1055.8,310.5 1056.5,310.6 1057.1,310.7 1057.8,310.8 1058.5,311.0 1059.2,311.1 1059.8,311.2 1060.5,311.3 1061.2,311.5 1061.8,311.6 1062.5,311.7 1063.2,311.8 1063.8,312.0 1064.5,312.1 1065.2,312.2 1065.8,312.3 1066.5,312.4 1067.2,312.6 1067.8,312.7 1068.5,312.8 1069.2,312.9 1069.8,313.0 1070.5,313.1 1071.2,313.3 1071.8,313.4 1072.5,313.5 1073.2,313.6 1073.8,313.7 1074.5,313.8 1075.2,314.0 1075.9,314.1 1076.5,314.2 1077.2,314.3 1077.9,314.4 1078.5,314.5 1079.2,314.6 1079.9,314.7 1080.5,314.8 1081.2,315.0 1081.9,315.1 1082.5,315.2 1083.2,315.3 1083.9,315.4 1084.5,315.5 1085.2,315.6 1085.9,315.7 1086.5,315.8 1087.2,315.9 1087.9,316.0 1088.5,316.1 1089.2,316.2 1089.9,316.3 1090.5,316.4 1091.2,316.5 1091.9,316.6 1092.6,316.7 1093.2,316.8 1093.9,317.0 1094.6,317.1 1095.2,317.2 1095.9,317.3 1096.6,317.4 1097.2,317.5 1097.9,317.6 1098.6,317.7 1099.2,317.7 1099.9,317.8 1100.6,317.9 1101.2,318.0 1101.9,318.1 1102.6,318.2 1103.2,318.3 1103.9,318.4 1104.6,318.5 1105.2,318.6 1105.9,318.7 1106.6,318.8 1107.2,318.9 1107.9,319.0 1108.6,319.1 1109.3,319.2 1109.9,319.3 1110.6,319.4 1111.3,319.5 1111.9,319.6 1112.6,319.6 1113.3,319.7 1113.9,319.8 1114.6,319.9 1115.3,320.0 1115.9,320.1 1116.6,320.2 1117.3,320.3 1117.9,320.4 1118.6,320.5 1119.3,320.5 1119.9,320.6 1120.6,320.7 1121.3,320.8 1121.9,320.9 1122.6,321.0 1123.3,321.1 1123.9,321.1 1124.6,321.2 1125.3,321.3 1126.0,321.4 1126.6,321.5 1127.3,321.6 1128.0,321.7 1128.6,321.7 1129.3,321.8 1130.0,321.9 1130.6,322.0 1131.3,322.1 1132.0,322.2 1132.6,322.2 1133.3,322.3 1134.0,322.4 1134.6,322.5 1135.3,322.6 1136.0,322.6 1136.6,322.7 1137.3,322.8 1138.0,322.9 1138.6,323.0 1139.3,323.0 1140.0,323.1 1140.6,323.2 1141.3,323.3 1142.0,323.4 1142.7,323.4 1143.3,323.5 1144.0,323.6 1144.7,323.7 1145.3,323.8 1146.0,323.8 1146.7,323.9 1147.3,324.0 1148.0,324.1 1148.7,324.1 1149.3,324.2 1150.0,324.3" stroke="#4477aa"/>
<polyline class="line" points="816.7,370.0 817.3,370.0 818.0,369.9 818.7,369.9 819.3,369.9 820.0,369.8 820.7,369.8 821.3,369.7 822.0,369.6 822.7,369.5 823.3,369.4 824.0,369.3 824.7,369.1 825.4,369.0 826.0,368.8 826.7,368.6 827.4,368.4 828.0,368.2 828.7,367.9 829.4,367.6 830.0,367.3 830.7,367.0 831.4,366.7 832.0,366.3 832.7,366.0 833.4,365.6 834.0,365.2 834.7,364.7 835.4,364.3 836.0,363.8 836.7,363.3 837.4,362.8 838.0,362.3 838.7,361.7 839.4,361.1 840.0,360.6 840.7,360.0 841.4,359.4 842.1,358.7 842.7,358.1 843.4,357.5 844.1,356.8 844.7,356.1 845.4,355.4 846.1,354.7 846.7,354.0 847.4,353.3 848.1,352.5 848.7,351.8 849.4,351.1 850.1,350.3 850.7,349.5 851.4,348.7 852.1,348.0 852.7,347.2 853.4,346.4 854.1,345.6 854.7,344.7 855.4,343.9 856.1,343.1 856.7,342.3 857.4,341.4 858.1,340.6 858.8,339.8 859.4,338.9 860.1,338.1 860.8,337.2 861.4,336.4 862.1,335.5 862.8,334.7 863.4,333.8 864.1,332.9 864.8,332.1 865.4,331.2 866.1,330.3 866.8,329.5 867.4,328.6 868.1,327.7 868.8,326.9 869.4,326.0 870.1,325.1 870.8,324.3 871.4,323.4 872.1,322.5 872.8,321.7 873.4,320.8 874.1,320.0 874.8,319.1 875.5,318.2 876.1,317.4 876.8,316.5 877.5,315.7 878.1,314.8 878.8,314.0 879.5,313.1 880.1,312.3 880.8,311.4 881.5,310.6 882.1,309.7 882.8,308.9 883.5,308.1 884.1,307.2 884.8,306.4 885.5,305.6 886.1,304.7 886.8,303.9 887.5,303.1 888.1,302.3 888.8,301.4 889.5,300.6 890.1,299.8 890.8,299.0 891.5,298.2 892.2,297.4 892.8,296.6 893.5,295.8 894.2,295.0 894.8,294.2 895.5,293.5 896.2,292.7 896.8,291.9 897.5,291.1 898.2,290.3 898.8,289.6 899.5,288.8 900.2,288.0 900.8,287.3 901.5,286.5 902.2,285.8 902.8,285.0 903.5,284.3 904.2,283.5 904.8,282.8 905.5,282.1 906.2,281.3 906.8,280.6 907.5,279.9 908.2,279.2 908.9,278.4 909.5,277.7 910.2,277.0 910.9,276.3 911.5,275.6 912.2,274.9 912.9,274.2 913.5,273.5 914.2,272.8 914.9,272.1 915.5,271.4 916.2,270.7 916.9,270.1 917.5,269.4 918.2,268.7 918.9,268.1 919.5,267.4 920.2,266.7 920.9,266.1 921.5,265.4 922.2,264.8 922.9,264.1 923.5,263.5 924.2,262.8 924.9,262.2 925.6,261.5 926.2,260.9 926.9,260.3 927.6,259.6 928.2,259.0 928.9,258.4 929.6,257.8 930.2,257.2 930.9,256.6 931.6,255.9 932.2,255.3 932.9,254.7 933.6,254.1 934.2,253.5 934.9,252.9 935.6,252.4 936.2,251.8 936.9,251.2 937.6,250.6 938.2,250.0 938.9,249.4 939.6,248.9 940.2,248.3 940.9,247.7 941.6,247.2 942.3,246.6 942.9,246.0 943.6,245.5 944.3,244.9 944.9,244.4 945.6,243.8 946.3,243.3 946.9,242.7 947.6,242.2 948.3,241.7 948.9,241.1 949.6,240.6 950.3,240.1 950.9,239.5 951.6,239.0 952.3,238.5 952.9,238.0 953.6,237.5 954.3,236.9 954.9,236.4 955.6,235.9 956.3,235.4 956.9,234.9 957.6,234.4 958.3,233.9 959.0,233.4 959.6,232.9 960.3,232.4 961.0,231.9 961.6,231.5 962.3,231.0 963.0,230.5 963.6,230.0 964.3,229.5 965.0,229.1 965.6,228.6 966.3,228.1 967.0,227.6 967.6,227.2 968.3,226.7 969.0,226.3 969.6,225.8 970.3,225.3 971.0,224.9 971.6,224.4 972.3,224.0 973.0,223.5 973.6,223.1 974.3,222.6 975.0,222.2 975.7,221.8 976.3,221.3 977.0,220.9 977.7,220.4 978.3,220.0 979.0,219.6 979.7,219.2 980.3,218.7 981.0,218.3 981.7,217.9 982.3,217.5 983.0,217.0 983.7,216.6 984.3,216.2 985.0,215.8 985.7,215.4 986.3,215.0 987.0,214.6 987.7,214.2 988.3,213.8 989.0,213.4 989.7,213.0 990.3,212.6 991.0,212.2 991.7,211.8 992.4,211.4 993.0,211.0 993.7,210.6 994.4,210.2 995.0,209.8 995.7,209.5 996.4,209.1 997.0,208.7 997.7,208.3 998.4,207.9 999.0,207.6 999.7,207.2 1000.4,206.8 1001.0,206.5 1001.7,206.1 1002.4,205.7 1003.0,205.4 1003.7,205.0 1004.4,204.6 1005.0,204.3 1005.7,203.9 1006.4,203.6 1007.0,203.2 1007.7,202.8 1008.4,202.5 1009.1,202.1 1009.7,201.8 1010.4,201.4 1011.1,201.1 1011.7,200.8 1012.4,200.4 1013.1,200.1 1013.7,199.7 1014.4,199.4 1015.1,199.1 1015.7,198.7 1016.4,198.4 1017.1,198.1 1017.7,197.7 1018.4,197.4 1019.1,197.1 1019.7,196.7 1020.4,196.4 1021.1,196.1 1021.7,195.8 1022.4,195.4 1023.1,195.1 1023.7,194.8 1024.4,194.5 1025.1,194.2 1025.8,193.9 1026.4,193.5 1027.1,193.2 1027.8,192.9 1028.4,192.6 1029.1,192.3 1029.8,192.0 1030.4,191.7 1031.1,191.4 1031.8,191.1 1032.4,190.8 1033.1,190.5 1033.8,190.2 1034.4,189.9 1035.1,189.6 1035.8,189.3 1036.4,189.0 1037.1,188.7 1037.8,188.4 1038.4,188.1 1039.1,187.8 1039.8,187.5 1040.4,187.3 1041.1,187.0 1041.8,186.7 1042.5,186.4 1043.1,186.1 1043.8,185.8 1044.5,185.5 1045.1,185.3 1045.8,185.0 1046.5,184.7 1047.1,184.4 1047.8,184.2 1048.5,183.9 1049.1,183.6 1049.8,183.3 1050.5,183.1 1051.1,182.8 1051.8,182.5 1052.5,182.3 1053.1,182.0 1053.8,181.7 1054.5,181.5 1055.1,181.2 1055.8,180.9 1056.5,180.7 1057.1,180.4 1057.8,180.2 1058.5,179.9 1059.2,179.6 1059.8,179.4 1060.5,179.1 1061.2,178.9 1061.8,178.6 1062.5,178.4 1063.2,178.1 1063.8,177.9 1064.5,177.6 1065.2,177.4 1065.8,177.1 1066.5,176.9 1067.2,176.6 1067.8,176.4 1068.5,176.1 1069.2,175.9 1069.8,175.7 1070.5,175.4 1071.2,175.2 1071.8,174.9 1072.5,174.7 1073.2,174.5 1073.8,174.2 1074.5,174.0 1075.2,173.8 1075.9,173.5 1076.5,173.3 1077.2,173.0 1077.9,172.8 1078.5,172.6 1079.2,172.4 1079.9,172.1 1080.5,171.9 1081.2,171.7 1081.9,171.4 1082.5,171.2 1083.2,171.0 1083.9,170.8 1084.5,170.5 1085.2,170.3 1085.9,170.1 1086.5,169.9 1087.2,169.7 1087.9,169.4 1088.5,169.2 1089.2,169.0 1089.9,168.8 1090.5,168.6 1091.2,168.4 1091.9,168.1 1092.6,167.9 1093.2,167.7 1093.9,167.5 1094.6,167.3 1095.2,167.1 1095.9,166.9 1096.6,166.7 1097.2,166.4 1097.9,166.2 1098.6,166.0 1099.2,165.8 1099.9,165.6 1100.6,165.4 1101.2,165.2 1101.9,165.0 1102.6,164.8 1103.2,164.6 1103.9,164.4 1104.6,164.2 1105.2,164.0 1105.9,163.8 1106.6,163.6 1107.2,163.4 1107.9,163.2 1108.6,163.0 1109.3,162.8 1109.9,162.6 1110.6,162.4 1111.3,162.2 1111.9,162.0 1112.6,161.8 1113.3,161.6 1113.9,161.5 1114.6,161.3 1115.3,161.1 1115.9,160.9 1116.6,160.7 1117.3,160.5 1117.9,160.3 1118.6,160.1 1119.3,159.9 1119.9,159.8 1120.6,159.6 1121.3,159.4 1121.9,159.2 1122.6,159.0 1123.3,158.8 1123.9,158.7 1124.6,158.5 1125.3,158.3 1126.0,158.1 1126.6,157.9 1127.3,157.8 1128.0,157.6 1128.6,157.4 1129.3,157.2 1130.0,157.0 1130.6,156.9 1131.3,156.7 1132.0,156.5 1132.6,156.3 1133.3,156.2 1134.0,156.0 1134.6,155.8 1135.3,155.6 1136.0,155.5 1136.6,155.3 1137.3,155.1 1138.0,155.0 1138.6,154.8 1139.3,154.6 1140.0,154.5 1140.6,154.3 1141.3,154.1 1142.0,154.0 1142.7,153.8 1143.3,153.6 1144.0,153.5 1144.7,153.3 1145.3,153.1 1146.0,153.0 1146.7,152.8 1147.3,152.6 1148.0,152.5 1148.7,152.3 1149.3,152.1 1150.0,152.0" stroke="#228833"/>
<polyline class="line" points="816.7,369.5 817.3,369.3 818.0,369.1 818.7,368.9 819.3,368.6 820.0,368.3 820.7,367.9 821.3,367.5 822.0,367.1 822.7,366.6 823.3,366.1 824.0,365.5 824.7,364.9 825.4,364.3 826.0,363.6 826.7,362.9 827.4,362.1 828.0,361.3 828.7,360.5 829.4,359.7 830.0,358.8 830.7,357.9 831.4,356.9 832.0,355.9 832.7,354.9 833.4,353.9 834.0,352.9 834.7,351.8 835.4,350.7 836.0,349.6 836.7,348.5 837.4,347.4 838.0,346.3 838.7,345.1 839.4,343.9 840.0,342.8 840.7,341.6 841.4,340.4 842.1,339.2 842.7,338.0 843.4,336.7 844.1,335.5 844.7,334.3 845.4,333.1 846.1,331.8 846.7,330.6 847.4,329.3 848.1,328.1 848.7,326.9 849.4,325.6 850.1,324.4 850.7,323.1 851.4,321.9 852.1,320.7 852.7,319.4 853.4,318.2 854.1,317.0 854.7,315.8 855.4,314.5 856.1,313.3 856.7,312.1 857.4,310.9 858.1,309.7 858.8,308.5 859.4,307.3 860.1,306.1 860.8,304.9 861.4,303.7 862.1,302.6 862.8,301.4 863.4,300.2 864.1,299.1 864.8,297.9 865.4,296.8 866.1,295.6 866.8,294.5 867.4,293.4 868.1,292.3 868.8,291.2 869.4,290.1 870.1,289.0 870.8,287.9 871.4,286.8 872.1,285.7 872.8,284.6 873.4,283.6 874.1,282.5 874.8,281.5 875.5,280.4 876.1,279.4 876.8,278.4 877.5,277.3 878.1,276.3 878.8,275.3 879.5,274.3 880.1,273.3 880.8,272.3 881.5,271.3 882.1,270.4 882.8,269.4 883.5,268.4 884.1,267.5 884.8,266.5 885.5,265.6 886.1,264.7 886.8,263.7 887.5,262.8 888.1,261.9 888.8,261.0 889.5,260.1 890.1,259.2 890.8,258.3 891.5,257.4 892.2,256.5 892.8,255.7 893.5,254.8 894.2,254.0 894.8,253.1 895.5,252.3 896.2,251.4 896.8,250.6 897.5,249.8 898.2,248.9 898.8,248.1 899.5,247.3 900.2,246.5 900.8,245.7 901.5,244.9 902.2,244.1 902.8,243.3 903.5,242.6 904.2,241.8 904.8,241.0 905.5,240.3 906.2,239.5 906.8,238.8 907.5,238.0 908.2,237.3 908.9,236.6 909.5,235.8 910.2,235.1 910.9,234.4 911.5,233.7 912.2,233.0 912.9,232.3 913.5,231.6 914.2,230.9 914.9,230.2 915.5,229.5 916.2,228.8 916.9,228.1 917.5,227.5 918.2,226.8 918.9,226.1 919.5,225.5 920.2,224.8 920.9,224.2 921.5,223.5 922.2,222.9 922.9,222.3 923.5,221.6 924.2,221.0 924.9,220.4 925.6,219.8 926.2,219.2 926.9,218.6 927.6,218.0 928.2,217.4 928.9,216.8 929.6,216.2 930.2,215.6 930.9,215.0 931.6,214.4 932.2,213.8 932.9,213.3 933.6,212.7 934.2,212.1 934.9,211.6 935.6,211.0 936.2,210.4 936.9,209.9 937.6,209.3 938.2,208.8 938.9,208.3 939.6,207.7 940.2,207.2 940.9,206.7 941.6,206.1 942.3,205.6 942.9,205.1 943.6,204.6 944.3,204.1 944.9,203.5 945.6,203.0 946.3,202.5 946.9,202.0 947.6,201.5 948.3,201.0 948.9,200.5 949.6,200.1 950.3,199.6 950.9,199.1 951.6,198.6 952.3,198.1 952.9,197.7 953.6,197.2 954.3,196.7 954.9,196.3 955.6,195.8 956.3,195.3 956.9,194.9 957.6,194.4 958.3,194.0 959.0,193.5 959.6,193.1 960.3,192.6 961.0,192.2 961.6,191.8 962.3,191.3 963.0,190.9 963.6,190.5 964.3,190.0 965.0,189.6 965.6,189.2 966.3,188.8 967.0,188.3 967.6,187.9 968.3,187.5 969.0,187.1 969.6,186.7 970.3,186.3 971.0,185.9 971.6,185.5 972.3,185.1 973.0,184.7 973.6,184.3 974.3,183.9 975.0,183.5 975.7,183.1 976.3,182.7 977.0,182.3 977.7,182.0 978.3,181.6 979.0,181.2 979.7,180.8 980.3,180.5 981.0,180.1 981.7,179.7 982.3,179.4 983.0,179.0 983.7,178.6 984.3,178.3 985.0,177.9 985.7,177.5 986.3,177.2 987.0,176.8 987.7,176.5 988.3,176.1 989.0,175.8 989.7,175.4 990.3,175.1 991.0,174.8 991.7,174.4 992.4,174.1 993.0,173.7 993.7,173.4 994.4,173.1 995.0,172.7 995.7,172.4 996.4,172.1 997.0,171.8 997.7,171.4 998.4,171.1 999.0,170.8 999.7,170.5 1000.4,170.2 1001.0,169.8 1001.7,169.5 1002.4,169.2 1003.0,168.9 1003.7,168.6 1004.4,168.3 1005.0,168.0 1005.7,167.7 1006.4,167.4 1007.0,167.1 1007.7,166.8 1008.4,166.5 1009.1,166.2 1009.7,165.9 1010.4,165.6 1011.1,165.3 1011.7,165.0 1012.4,164.7 1013.1,164.4 1013.7,164.1 1014.4,163.8 1015.1,163.5 1015.7,163.3 1016.4,163.0 1017.1,162.7 1017.7,162.4 1018.4,162.1 1019.1,161.9 1019.7,161.6 1020.4,161.3 1021.1,161.0 1021.7,160.8 1022.4,160.5 1023.1,160.2 1023.7,160.0 1024.4,159.7 1025.1,159.4 1025.8,159.2 1026.4,158.9 1027.1,158.7 1027.8,158.4 1028.4,158.1 1029.1,157.9 1029.8,157.6 1030.4,157.4 1031.1,157.1 1031.8,156.9 1032.4,156.6 1033.1,156.4 1033.8,156.1 1034.4,155.9 1035.1,155.6 1035.8,155.4 1036.4,155.1 1037.1,154.9 1037.8,154.6 1038.4,154.4 1039.1,154.2 1039.8,153.9 1040.4,153.7 1041.1,153.4 1041.8,153.2 1042.5,153.0 1043.1,152.7 1043.8,152.5 1044.5,152.3 1045.1,152.0 1045.8,151.8 1046.5,151.6 1047.1,151.4 1047.8,151.1 1048.5,150.9 1049.1,150.7 1049.8,150.5 1050.5,150.2 1051.1,150.0 1051.8,149.8 1052.5,149.6 1053.1,149.4 1053.8,149.1 1054.5,148.9 1055.1,148.7 1055.8,148.5 1056.5,148.3 1057.1,148.1 1057.8,147.8 1058.5,147.6 1059.2,147.4 1059.8,147.2 1060.5,147.0 1061.2,146.8 1061.8,146.6 1062.5,146.4 1063.2,146.2 1063.8,146.0 1064.5,145.8 1065.2,145.6 1065.8,145.4 1066.5,145.2 1067.2,145.0 1067.8,144.8 1068.5,144.6 1069.2,144.4 1069.8,144.2 1070.5,144.0 1071.2,143.8 1071.8,143.6 1072.5,143.4 1073.2,143.2 1073.8,143.0 1074.5,142.8 1075.2,142.6 1075.9,142.4 1076.5,142.3 1077.2,142.1 1077.9,141.9 1078.5,141.7 1079.2,141.5 1079.9,141.3 1080.5,141.1 1081.2,141.0 1081.9,140.8 1082.5,140.6 1083.2,140.4 1083.9,140.2 1084.5,140.0 1085.2,139.9 1085.9,139.7 1086.5,139.5 1087.2,139.3 1087.9,139.2 1088.5,139.0 1089.2,138.8 1089.9,138.6 1090.5,138.5 1091.2,138.3 1091.9,138.1 1092.6,137.9 1093.2,137.8 1093.9,137.6 1094.6,137.4 1095.2,137.3 1095.9,137.1 1096.6,136.9 1097.2,136.8 1097.9,136.6 1098.6,136.4 1099.2,136.3 1099.9,136.1 1100.6,135.9 1101.2,135.8 1101.9,135.6 1102.6,135.4 1103.2,135.3 1103.9,135.1 1104.6,135.0 1105.2,134.8 1105.9,134.6 1106.6,134.5 1107.2,134.3 1107.9,134.2 1108.6,134.0 1109.3,133.8 1109.9,133.7 1110.6,133.5 1111.3,133.4 1111.9,133.2 1112.6,133.1 1113.3,132.9 1113.9,132.8 1114.6,132.6 1115.3,132.5 1115.9,132.3 1116.6,132.2 1117.3,132.0 1117.9,131.9 1118.6,131.7 1119.3,131.6 1119.9,131.4 1120.6,131.3 1121.3,131.1 1121.9,131.0 1122.6,130.8 1123.3,130.7 1123.9,130.5 1124.6,130.4 1125.3,130.3 1126.0,130.1 1126.6,130.0 1127.3,129.8 1128.0,129.7 1128.6,129.5 1129.3,129.4 1130.0,129.3 1130.6,129.1 1131.3,129.0 1132.0,128.9 1132.6,128.7 1133.3,128.6 1134.0,128.4 1134.6,128.3 1135.3,128.2 1136.0,128.0 1136.6,127.9 1137.3,127.8 1138.0,127.6 1138.6,127.5 1139.3,127.4 1140.0,127.2 1140.6,127.1 1141.3,127.0 1142.0,126.8 1142.7,126.7 1143.3,126.6 1144.0,126.4 1144.7,126.3 1145.3,126.2 1146.0,126.1 1146.7,125.9 1147.3,125.8 1148.0,125.7 1148.7,125.5 1149.3,125.4 1150.0,125.3" stroke="#aa3377"/>
<line x1="860.1" y1="50" x2="860.1" y2="370" stroke="#555" stroke-width="1.5" stroke-dasharray="5 4"/>
<line x1="918.1" y1="50" x2="918.1" y2="370" stroke="#555" stroke-width="1.5" stroke-dasharray="5 4"/>
<line x1="936.6666666666666" y1="70" x2="960.6666666666666" y2="70" stroke="#4477aa" stroke-width="3"/>
<text class="label" x="966.6666666666666" y="74">mean(t)</text>
<line x1="936.6666666666666" y1="90" x2="960.6666666666666" y2="90" stroke="#228833" stroke-width="3"/>
<text class="label" x="966.6666666666666" y="94">P(t<0.1)</text>
<line x1="936.6666666666666" y1="110" x2="960.6666666666666" y2="110" stroke="#aa3377" stroke-width="3"/>
<text class="label" x="966.6666666666666" y="114">P(t<0.2)</text>
</svg>